<svg xmlns="http://www.w3.org/2000/svg" viewBox="0 0 100 100">
  <defs>
    <linearGradient id="grad" x1="0%" y1="0%" x2="100%" y2="100%">
      <stop offset="0%" style="stop-color:#006C35"/>
      <stop offset="100%" style="stop-color:#004D26"/>
    </linearGradient>
  </defs>
  <!-- Background -->
  <rect width="100" height="100" rx="15" fill="url(#grad)"/>
  <!-- Book Icon -->
  <g fill="white">
    <!-- Left page -->
    <path d="M20 25 C20 25 35 22 50 25 L50 75 C35 72 20 75 20 75 Z" fill-opacity="0.9"/>
    <!-- Right page -->
    <path d="M80 25 C80 25 65 22 50 25 L50 75 C65 72 80 75 80 75 Z" fill-opacity="0.9"/>
    <!-- Spine -->
    <rect x="48" y="22" width="4" height="56" rx="1"/>
    <!-- Lines on left page -->
    <rect x="25" y="35" width="20" height="2" rx="1" fill-opacity="0.3"/>
    <rect x="25" y="42" width="18" height="2" rx="1" fill-opacity="0.3"/>
    <rect x="25" y="49" width="20" height="2" rx="1" fill-opacity="0.3"/>
    <!-- Lines on right page -->
    <rect x="55" y="35" width="20" height="2" rx="1" fill-opacity="0.3"/>
    <rect x="55" y="42" width="18" height="2" rx="1" fill-opacity="0.3"/>
    <rect x="55" y="49" width="20" height="2" rx="1" fill-opacity="0.3"/>
  </g>
</svg>
